<svg xmlns="http://www.w3.org/2000/svg" viewBox="0 0 123.36 35.47"><defs><style>.cls-1{fill:#d000c1;fill-rule:evenodd;}.cls-2{isolation:isolate;opacity:0.68;font-size:21px;fill:#ffbdee;font-family:CatalishHuntera-Italic, Catalish Huntera;font-style:italic;letter-spacing:0em;}</style></defs><g id="Layer_2" data-name="Layer 2"><g id="Layer_1-2" data-name="Layer 1"><path class="cls-1" d="M33.05,17.74A15.23,15.23,0,1,1,17.83,2.47,15.45,15.45,0,0,1,33.05,17.74Zm2.6,0A17.83,17.83,0,1,1,17.83,0,17.74,17.74,0,0,1,35.65,17.74Zm-8-7.86a1.71,1.71,0,0,1-1.8,1.79A1.86,1.86,0,0,1,24,9.88a1.87,1.87,0,0,1,1.81-1.8C26.64,7.86,27.64,8.76,27.64,9.88Zm-15.42,9.2A5.43,5.43,0,0,0,19,22.9a5.56,5.56,0,0,0,4-6.73,5.43,5.43,0,0,0-6.81-3.82A5.56,5.56,0,0,0,12.22,19.08Zm-2.41.68a8,8,0,0,0,10,5.61A8,8,0,1,0,15.62,9.88,8,8,0,0,0,9.81,19.76Z"/><text class="cls-2" transform="translate(36.3 21.26)">Iuchat</text></g></g></svg>