<?xml version="1.0" encoding="utf-8"?>
<!-- Generator: Adobe Illustrator 26.0.1, SVG Export Plug-In . SVG Version: 6.00 Build 0)  -->
<svg version="1.1" id="Layer_1" xmlns="http://www.w3.org/2000/svg" xmlns:xlink="http://www.w3.org/1999/xlink" x="0px" y="0px"
	 viewBox="0 0 128.4 54.6" style="enable-background:new 0 0 128.4 54.6;" xml:space="preserve">
<style type="text/css">
	.st0{fill-rule:evenodd;clip-rule:evenodd;fill:#D000C1;}
	.st1{opacity:0.68;fill:#FFBDEE;enable-background:new    ;}
	.st2{font-family:'CatalishHuntera-Italic';}
	.st3{font-size:21px;}
</style>
<path class="st0" d="M36.8,25.5c0,8.3-6.8,15.3-15.2,15.3S6.3,34.1,6.3,25.5s6.8-15.3,15.2-15.3C29.7,10.3,36.8,17.2,36.8,25.5z
	 M39.4,25.5c0,9.9-8,17.7-17.8,17.7S3.7,35.4,3.7,25.5s8-17.7,17.8-17.7S39.4,15.7,39.4,25.5z M31.3,17.7c0,1.1-0.8,1.8-1.8,1.8
	c-1,0-1.8-0.9-1.8-1.8s0.8-1.8,1.8-1.8C30.3,15.7,31.3,16.6,31.3,17.7z M15.9,26.9c0.8,2.9,3.8,4.7,6.8,3.8c3-0.9,4.8-3.8,4-6.7
	c-0.8-2.9-3.8-4.7-6.8-3.8C16.9,21,15.1,24,15.9,26.9z M13.5,27.6c1.2,4.3,5.6,7,10,5.6c4.4-1.1,7-5.6,5.8-9.9
	c-1.2-4.3-5.6-7-10-5.6C14.9,18.8,12.3,23.3,13.5,27.6z"/>
<text transform="matrix(1 0 0 1 40.0103 29.0615)" class="st1 st2 st3">Iuchat</text>
</svg>
